<svg width="21" height="20" viewBox="0 0 21 20" fill="none" xmlns="http://www.w3.org/2000/svg">
<path d="M10.2827 9.58329C9.71454 9.58329 9.16965 9.3638 8.76791 8.9731C8.36616 8.5824 8.14046 8.05249 8.14046 7.49996C8.14046 6.94742 8.36616 6.41752 8.76791 6.02682C9.16965 5.63612 9.71454 5.41663 10.2827 5.41663C10.8508 5.41663 11.3957 5.63612 11.7975 6.02682C12.1992 6.41752 12.4249 6.94742 12.4249 7.49996C12.4249 7.77355 12.3695 8.04446 12.2619 8.29722C12.1542 8.54998 11.9964 8.77964 11.7975 8.9731C11.5986 9.16655 11.3624 9.32001 11.1025 9.42471C10.8426 9.52941 10.564 9.58329 10.2827 9.58329ZM10.2827 1.66663C8.69186 1.66663 7.16618 2.28121 6.0413 3.37517C4.91641 4.46913 4.28445 5.95286 4.28445 7.49996C4.28445 11.875 10.2827 18.3333 10.2827 18.3333C10.2827 18.3333 16.2809 11.875 16.2809 7.49996C16.2809 5.95286 15.649 4.46913 14.5241 3.37517C13.3992 2.28121 11.8735 1.66663 10.2827 1.66663Z" fill="#5A607A"/>
</svg>
